<svg width="19" height="23" viewBox="0 0 19 23" fill="none" xmlns="http://www.w3.org/2000/svg">
<path id="mic" d="M9.5 14.4067C8.42857 14.4067 7.51786 14.0676 6.76786 13.3893C6.01786 12.7111 5.64286 11.8875 5.64286 10.9186V3.94257C5.64286 2.97367 6.01786 2.1501 6.76786 1.47187C7.51786 0.793644 8.42857 0.454529 9.5 0.454529C10.5714 0.454529 11.4821 0.793644 12.2321 1.47187C12.9821 2.1501 13.3571 2.97367 13.3571 3.94257V10.9186C13.3571 11.8875 12.9821 12.7111 12.2321 13.3893C11.4821 14.0676 10.5714 14.4067 9.5 14.4067ZM8.21429 22.5454V18.9702C5.98571 18.6989 4.14286 17.7978 2.68571 16.267C1.22857 14.7361 0.5 12.9533 0.5 10.9186H3.07143C3.07143 12.527 3.69821 13.898 4.95179 15.0316C6.20536 16.1652 7.72143 16.732 9.5 16.732C11.2786 16.732 12.7946 16.1652 14.0482 15.0316C15.3018 13.898 15.9286 12.527 15.9286 10.9186H18.5C18.5 12.9533 17.7714 14.7361 16.3143 16.267C14.8571 17.7978 13.0143 18.6989 10.7857 18.9702V22.5454H8.21429ZM9.5 12.0813C9.86429 12.0813 10.1696 11.9699 10.4161 11.7471C10.6625 11.5242 10.7857 11.2481 10.7857 10.9186V3.94257C10.7857 3.61314 10.6625 3.33701 10.4161 3.11416C10.1696 2.89131 9.86429 2.77989 9.5 2.77989C9.13571 2.77989 8.83036 2.89131 8.58393 3.11416C8.3375 3.33701 8.21429 3.61314 8.21429 3.94257V10.9186C8.21429 11.2481 8.3375 11.5242 8.58393 11.7471C8.83036 11.9699 9.13571 12.0813 9.5 12.0813Z" fill="#E9EAEF"/>
</svg>
