<svg width="21" height="21" viewBox="0 0 21 21" fill="none" xmlns="http://www.w3.org/2000/svg">
<g id="Vector">
<path fill-rule="evenodd" clip-rule="evenodd" d="M7.0549 3.92568C6.31934 4.76427 5.90402 5.98009 5.90402 7.42609V9.26447C5.90402 10.1772 5.49326 10.9354 5.05783 11.5132C4.6596 12.0415 4.16367 12.5159 3.77423 12.8884C3.74153 12.9197 3.70957 12.9503 3.67849 12.9801C3.31418 13.3296 3.07574 13.8042 3.07574 14.3554C3.07574 14.9124 3.49324 15.2746 3.90066 15.2746H17.0993C17.5067 15.2746 17.9242 14.9124 17.9242 14.3554C17.9242 13.8042 17.6858 13.3296 17.3215 12.9801C17.2904 12.9503 17.2584 12.9197 17.2257 12.8884C16.8363 12.5159 16.3404 12.0415 15.9421 11.5132C15.5067 10.9354 15.0959 10.1772 15.0959 9.26447V7.42609C15.0959 5.98009 14.6806 4.76427 13.9451 3.92568C13.2271 3.10711 12.1175 2.5473 10.5 2.5473C8.8825 2.5473 7.7729 3.10711 7.0549 3.92568ZM5.46022 2.52692C6.62775 1.19585 8.34642 0.426086 10.5 0.426086C12.6535 0.426086 14.3722 1.19585 15.5398 2.52692C16.6897 3.83797 17.2172 5.59184 17.2172 7.42609V9.26447C17.2172 9.52329 17.3333 9.83466 17.6361 10.2364C17.9264 10.6215 18.3032 10.9827 18.7194 11.3818C18.7428 11.4042 18.7663 11.4267 18.79 11.4494C19.5152 12.1451 20.0454 13.153 20.0454 14.3554C20.0454 15.9852 18.7746 17.3958 17.0993 17.3958H3.90066C2.22539 17.3958 0.954529 15.9852 0.954529 14.3554C0.954529 13.153 1.4848 12.1451 2.20998 11.4494C2.23362 11.4267 2.25713 11.4042 2.28052 11.3818C2.69678 10.9828 3.0736 10.6216 3.36386 10.2364C3.66667 9.83466 3.78281 9.52329 3.78281 9.26447V7.42609C3.78281 5.59184 4.31025 3.83797 5.46022 2.52692Z" fill="#284B80" fill-opacity="0.6"/>
<path fill-rule="evenodd" clip-rule="evenodd" d="M7.78816 17.5756C8.27465 17.2493 8.9335 17.3792 9.25975 17.8657C9.36515 18.0229 9.52892 18.1712 9.74911 18.2809C9.96954 18.3907 10.229 18.4527 10.5001 18.4527C10.7711 18.4527 11.0306 18.3907 11.2511 18.2809C11.4713 18.1712 11.635 18.0229 11.7404 17.8657C12.0667 17.3792 12.7255 17.2493 13.212 17.5756C13.6985 17.9018 13.8284 18.5607 13.5022 19.0472C13.1764 19.5329 12.7214 19.9183 12.197 20.1795C11.6729 20.4406 11.0883 20.5739 10.5001 20.5739C9.91192 20.5739 9.32727 20.4406 8.80316 20.1795C8.2788 19.9183 7.82374 19.5329 7.49801 19.0472C7.17176 18.5607 7.30167 17.9018 7.78816 17.5756Z" fill="#284B80" fill-opacity="0.6"/>
</g>
</svg>
