<svg width="22" height="24" viewBox="0 0 22 24" fill="none" xmlns="http://www.w3.org/2000/svg">
<g id="Frame 1000001646">
<path id="Union (Stroke)" fill-rule="evenodd" clip-rule="evenodd" d="M7.18459 3.29786C7.18459 1.66059 8.51186 0.333313 10.1491 0.333313H11.8509C13.4882 0.333313 14.8155 1.66059 14.8155 3.29786C14.8155 3.53514 14.9791 3.85171 15.3702 4.0641C15.4905 4.12946 15.6092 4.19742 15.7261 4.26792C16.1162 4.50305 16.4823 4.48796 16.6973 4.36495C18.1251 3.54803 19.9445 4.03552 20.7725 5.45687L21.5943 6.86753C22.424 8.29161 21.9344 10.1189 20.5039 10.9374C20.2964 11.0561 20.1014 11.3579 20.1109 11.807C20.1123 11.8712 20.113 11.9355 20.113 12C20.113 12.0644 20.1123 12.1288 20.1109 12.193C20.1014 12.6421 20.2964 12.9439 20.5038 13.0626C21.9343 13.8811 22.4239 15.7083 21.5943 17.1324L20.7725 18.5431C19.9444 19.9644 18.125 20.4519 16.6973 19.635C16.4823 19.512 16.1161 19.4969 15.7261 19.732C15.6092 19.8025 15.4905 19.8705 15.3702 19.9359C14.9791 20.1483 14.8155 20.4648 14.8155 20.7021C14.8155 22.3394 13.4882 23.6666 11.8509 23.6666H10.1491C8.51186 23.6666 7.18459 22.3394 7.18459 20.7021C7.18459 20.4648 7.02096 20.1483 6.62989 19.9359C6.50955 19.8705 6.39086 19.8025 6.27392 19.732C5.88389 19.4969 5.51776 19.512 5.30279 19.635C3.87503 20.4519 2.05563 19.9644 1.22759 18.5431L0.405742 17.1324C-0.423885 15.7083 0.0657191 13.881 1.49621 13.0626C1.7036 12.9439 1.8986 12.6421 1.8891 12.193C1.88774 12.1288 1.88706 12.0644 1.88706 12C1.88706 11.9355 1.88774 11.8712 1.8891 11.8071C1.8986 11.3579 1.70359 11.0561 1.49619 10.9374C0.0656803 10.1189 -0.423926 8.29162 0.405709 6.86754L1.22753 5.45688C2.05558 4.03553 3.87499 3.54804 5.30275 4.36496C5.51773 4.48797 5.88387 4.50306 6.27391 4.26793C6.39086 4.19743 6.50954 4.12946 6.62989 4.0641C7.02096 3.85171 7.18459 3.53514 7.18459 3.29786ZM10.1491 2.66665C9.80053 2.66665 9.51792 2.94925 9.51792 3.29786C9.51792 4.58824 8.69487 5.59785 7.74349 6.11455C7.65394 6.16318 7.56561 6.21377 7.47856 6.26624C6.55051 6.8257 5.26483 7.03155 4.14396 6.39022C3.82854 6.20974 3.42661 6.31744 3.24368 6.63144L2.42186 8.04211C2.2445 8.34655 2.34916 8.73719 2.65498 8.91217C3.77768 9.55454 4.24482 10.7734 4.22191 11.8564C4.2209 11.9041 4.22039 11.952 4.22039 12C4.22039 12.048 4.2209 12.0959 4.22191 12.1436C4.24482 13.2265 3.77769 14.4454 2.655 15.0878C2.3492 15.2628 2.24454 15.6534 2.42189 15.9578L3.24374 17.3685C3.42666 17.6825 3.82859 17.7902 4.144 17.6098C5.26486 16.9684 6.55053 17.1743 7.47856 17.7337C7.56561 17.7862 7.65394 17.8368 7.74349 17.8854C8.69487 18.4021 9.51792 19.4117 9.51792 20.7021C9.51792 21.0507 9.80053 21.3333 10.1491 21.3333H11.8509C12.1995 21.3333 12.4821 21.0507 12.4821 20.7021C12.4821 19.4117 13.3052 18.4021 14.2566 17.8854C14.3461 17.8368 14.4344 17.7862 14.5215 17.7337C15.4495 17.1743 16.7352 16.9684 17.856 17.6098C18.1715 17.7902 18.5734 17.6825 18.7563 17.3685L19.5782 15.9578C19.7555 15.6534 19.6508 15.2628 19.345 15.0878C18.2224 14.4455 17.7552 13.2266 17.7781 12.1436C17.7791 12.0959 17.7797 12.048 17.7797 12C17.7797 11.952 17.7791 11.9041 17.7781 11.8564C17.7552 10.7734 18.2224 9.55453 19.3451 8.91215C19.6509 8.73718 19.7556 8.34654 19.5782 8.04209L18.7564 6.63143C18.5734 6.31743 18.1715 6.20973 17.8561 6.39021C16.7352 7.03154 15.4495 6.82569 14.5215 6.26624C14.4344 6.21376 14.3461 6.16318 14.2566 6.11455C13.3052 5.59785 12.4821 4.58824 12.4821 3.29786C12.4821 2.94925 12.1995 2.66665 11.8509 2.66665H10.1491Z" fill="#284B80" fill-opacity="0.6"/>
<path id="Vector (Stroke)" fill-rule="evenodd" clip-rule="evenodd" d="M10.9995 9.66665C9.71083 9.66665 8.66616 10.7113 8.66616 12C8.66616 13.2886 9.71083 14.3333 10.9995 14.3333C12.2882 14.3333 13.3328 13.2886 13.3328 12C13.3328 10.7113 12.2882 9.66665 10.9995 9.66665ZM6.33282 12C6.33282 9.42265 8.42216 7.33331 10.9995 7.33331C13.5768 7.33331 15.6662 9.42265 15.6662 12C15.6662 14.5773 13.5768 16.6666 10.9995 16.6666C8.42216 16.6666 6.33282 14.5773 6.33282 12Z" fill="#284B80" fill-opacity="0.6"/>
</g>
</svg>
