<svg width="12" height="8" viewBox="0 0 12 8" fill="none" xmlns="http://www.w3.org/2000/svg">
<path d="M6.399 7.5717L11.973 0.43525C11.9876 0.416602 11.9968 0.394191 11.9993 0.370592C12.0018 0.346993 11.9976 0.323161 11.9872 0.301835C11.9768 0.280509 11.9606 0.262554 11.9404 0.25003C11.9202 0.237506 11.897 0.230922 11.8732 0.231035L10.6495 0.231035C10.572 0.231035 10.4975 0.267445 10.4501 0.327602L6.00007 6.02663L1.55008 0.327602C1.50258 0.265862 1.42818 0.231035 1.35061 0.231035L0.126901 0.231035C0.0208359 0.231035 -0.0377378 0.352931 0.0271683 0.43525L5.60113 7.5717C5.64845 7.63236 5.70897 7.68142 5.7781 7.71517C5.84723 7.74892 5.92314 7.76646 6.00007 7.76646C6.07699 7.76646 6.15291 7.74892 6.22203 7.71517C6.29116 7.68142 6.35168 7.63236 6.399 7.5717Z" fill="#757575" fill-opacity="0.5"/>
</svg>
